<svg width="25" height="25" viewBox="0 0 25 25" xmlns="http://www.w3.org/2000/svg"><title>F5178A36-484D-4CBD-B854-B97A8DAFE3AE</title><path d="M0 4.003A4.007 4.007 0 0 1 4.003 0h16.994A4.007 4.007 0 0 1 25 4.003v16.994A4.007 4.007 0 0 1 20.997 25H4.003A4.007 4.007 0 0 1 0 20.997V4.003zM10.66 18.2l.045-.001c.316-.013.612-.157.817-.397l8.472-9.937a1.132 1.132 0 0 0-1.724-1.469l-7.676 9.004-3.661-3.661a1.132 1.132 0 1 0-1.601 1.601l4.528 4.528c.213.213.5.332.8.332z" fill="#FBCE20" fill-rule="evenodd"/></svg>