<svg width="23" height="30" viewBox="0 0 23 30" xmlns="http://www.w3.org/2000/svg"><title>B2E8D55E-C906-4684-BFD2-F4583508FB97</title><path d="M20.507 21.444l-4.777-2.387a1.315 1.315 0 0 1-.73-1.183v-1.69c.114-.14.235-.3.36-.476a11.443 11.443 0 0 0 1.476-2.9A1.984 1.984 0 0 0 18 11V9c0-.482-.18-.948-.5-1.313V5.029c.028-.275.138-1.912-1.046-3.263C15.427.594 13.761 0 11.5 0 9.24 0 7.573.594 6.546 1.765 5.362 3.115 5.472 4.753 5.5 5.028v2.66C5.18 8.052 5 8.518 5 9v2c0 .608.276 1.176.748 1.554.459 1.814 1.417 3.18 1.752 3.619v1.655c0 .484-.264.927-.688 1.16L2.35 21.42A4.509 4.509 0 0 0 0 25.381V27c0 2.373 7.523 3 11.5 3 3.977 0 11.5-.627 11.5-3v-1.522a4.486 4.486 0 0 0-2.493-4.034zM22 27c0 .678-3.706 2-10.5 2C4.706 29 1 27.678 1 27v-1.619c0-1.285.701-2.467 1.83-3.082l4.46-2.433a2.322 2.322 0 0 0 1.21-2.038v-2.01l-.117-.139c-.012-.015-1.237-1.497-1.705-3.532l-.045-.198-.17-.11A.998.998 0 0 1 6 11V9c0-.28.119-.542.335-.738l.165-.148V5l-.005-.066c-.001-.013-.171-1.399.803-2.51C8.127 1.479 9.541 1 11.5 1c1.953 0 3.363.476 4.193 1.414.974 1.1.812 2.508.812 2.52l-.005 3.18.165.149A.985.985 0 0 1 17 9v2a.994.994 0 0 1-.711.95l-.249.076-.08.247a10.467 10.467 0 0 1-1.417 2.857c-.148.21-.293.397-.419.54l-.124.142v2.062c0 .885.492 1.68 1.283 2.076l4.777 2.389a3.491 3.491 0 0 1 1.94 3.14V27z" fill-rule="nonzero" fill="#000"/></svg>