<svg width="672" height="219" viewBox="0 0 672 219" xmlns="http://www.w3.org/2000/svg"><title>1C75C8C7-EABA-4953-9B13-AF2809AF8630</title><path d="M89.95 21.47C42.95 45.8 17 33.12 17 33.12s2.388 76.38 11.449 103.61c8.364 25.139 54.466 56.079 61.501 60.686V198s.156-.099.45-.29l.45.29v-.584c7.037-4.607 53.138-35.547 61.503-60.685C161.413 109.5 162 33.12 162 33.12S137.828 45.8 90.85 21.47V21l-.45.236-.45-.236v.47zM175.4 93.454l39.183-7.069 8.723 7.671h1.395v-2.193c0-4.236 3.447-7.67 7.68-7.67 4.24 0 7.68 3.438 7.68 7.67v1.46a10.44 10.44 0 0 1 2.732-.362h416.795c5.751 0 10.413 4.66 10.413 10.41s-4.655 10.412-10.413 10.412H646V141H461.152v-27.216h-17.59v14.847h-15.36v-14.847h-8.679v20.326H391v-20.326h-7V141H270v-27.216h-27.208c-.945 0-1.862-.126-2.733-.362v1.46c0 4.235-3.447 7.67-7.68 7.67-4.24 0-7.679-3.438-7.679-7.67v-4.386h-.149l-9.969 8.768-41.042-7.404c-1.499 12.31-3.44 23.186-5.952 30.717-10.194 30.55-67.007 68.152-75.63 73.72V217s-.19-.119-.549-.35l-.548.35v-.702c-8.623-5.569-65.436-43.172-75.63-73.721C4.194 109.5 2 11.863 2 11.863s31.61 20.2 88.86-9.293V2l.55.286.548-.286v.57c57.223 29.492 86.666 9.293 86.666 9.293s0 42.998-3.225 81.592z" stroke="#929292" stroke-width="3" fill="none" fill-rule="evenodd" stroke-linecap="round" stroke-linejoin="bevel"/></svg>