<svg width="31" height="25" viewBox="0 0 31 25" xmlns="http://www.w3.org/2000/svg"><title>104997B4-C399-4304-BEE2-58952DBB3097</title><path d="M29.024 0H1.978C.889 0 0 .757 0 1.678v21.644C0 24.247.89 25 1.978 25h27.046C30.108 25 31 24.247 31 23.322V1.678C31 .758 30.108 0 29.024 0zm-7.793 2.016c0-.276.267-.503.59-.503h1.911c.325 0 .592.227.592.503v1.572c0 .277-.267.502-.592.502h-1.91c-.324 0-.59-.225-.59-.502V2.016zm7.34 3.8c.324 0 .59.224.59.501v12.368c0 .275-.266.502-.59.502H16.98c-.327 0-.594-.227-.594-.502V6.317c0-.277.267-.501.594-.501h11.59zm-12.191-3.8c0-.276.269-.503.592-.503h1.905c.329 0 .594.227.594.503v1.572c0 .277-.265.502-.594.502h-1.905c-.323 0-.592-.225-.592-.502V2.016zm-9.704 0c0-.276.264-.503.59-.503h1.911c.325 0 .592.227.592.503v1.572c0 .277-.267.502-.592.502h-1.91c-.327 0-.59-.225-.59-.502V2.016zm-4.852 0c0-.276.268-.503.593-.503h1.905c.328 0 .592.227.592.503v1.572c0 .277-.264.502-.592.502H2.417c-.325 0-.593-.225-.593-.502V2.016zm0 4.301c0-.277.268-.501.593-.501h11.588c.329 0 .594.224.594.501v12.368c0 .275-.265.502-.594.502H2.417c-.325 0-.593-.227-.593-.502V6.317zm3.09 16.669c0 .277-.264.503-.592.503H2.417c-.325 0-.593-.226-.593-.503v-1.572c0-.275.268-.502.593-.502h1.905c.328 0 .592.227.592.502v1.572zm4.855 0c0 .277-.267.503-.592.503h-1.91c-.327 0-.59-.226-.59-.503v-1.572c0-.275.263-.502.59-.502h1.91c.325 0 .592.227.592.502v1.572zm4.853 0c0 .277-.269.503-.594.503h-1.907c-.326 0-.594-.226-.594-.503v-1.572c0-.275.268-.502.594-.502h1.907c.325 0 .594.227.594.502v1.572zm0-19.398c0 .277-.269.502-.594.502h-1.907c-.326 0-.594-.225-.594-.502V2.016c0-.276.268-.503.594-.503h1.907c.325 0 .594.227.594.503v1.572zm4.849 19.398c0 .277-.266.503-.594.503h-1.905c-.324 0-.593-.226-.593-.503v-1.572c0-.275.27-.502.593-.502h1.905c.328 0 .594.227.594.502v1.572zm4.853 0c0 .277-.267.503-.592.503h-1.91c-.324 0-.59-.226-.59-.503v-1.572c0-.275.266-.502.59-.502h1.91c.325 0 .592.227.592.502v1.572zm4.854 0c0 .277-.266.503-.593.503h-1.908c-.327 0-.594-.226-.594-.503v-1.572c0-.275.267-.502.594-.502h1.908c.327 0 .593.227.593.502v1.572zm0-19.398c0 .277-.266.502-.593.502h-1.908c-.327 0-.594-.225-.594-.502V2.016c0-.276.267-.503.594-.503h1.908c.327 0 .593.227.593.503v1.572z" fill="#6B6B6B" fill-rule="evenodd"/></svg>