<svg width="25" height="25" viewBox="0 0 25 25" xmlns="http://www.w3.org/2000/svg"><title>B504FB26-0578-40ED-98BE-4E60C74784A6</title><path d="M21.865 22.919h-2.081a3.103 3.103 0 0 1-3.108-3.108 3.068 3.068 0 0 1 3.08-3.135h2.08c.362 0 .722.083 1.055.194V7.436L8.324 9.267v12.598A3.109 3.109 0 0 1 5.216 25h-2.08a3.109 3.109 0 1 1-.028-6.215h2.08c.361 0 .722.083 1.055.194V3.135c0-.527.389-.943.916-1.026V2.08L23.807 0v.028c.055 0 .083-.028.139-.028.555.028 1.026.5 1.026 1.082v18.73a3.103 3.103 0 0 1-3.107 3.107zM5.216 20.838h-2.08a1.054 1.054 0 1 0 0 2.109h2.08c.583 0 1.055-.472 1.055-1.055-.028-.582-.5-1.054-1.055-1.054zm16.649-2.081h-2.081a1.054 1.054 0 1 0 0 2.109h2.08c.583 0 1.055-.472 1.055-1.055-.028-.582-.5-1.054-1.054-1.054zM8.325 4.079v3.107l14.566-1.83V2.247L8.324 4.078z" fill="#6B6B6B" fill-rule="evenodd"/></svg>