<svg width="32" height="25" viewBox="0 0 32 25" xmlns="http://www.w3.org/2000/svg"><title>1B956BF6-2B79-4D90-A0E9-CB570C7C8912</title><g fill="#6B6B6B" fill-rule="evenodd"><path d="M29.5 25h-27C1.122 25 0 23.922 0 22.596V2.404C0 1.079 1.122 0 2.5 0h27C30.879 0 32 1.079 32 2.404v20.192C32 23.922 30.879 25 29.5 25zM2.5 1.923a.49.49 0 0 0-.5.48v20.193c0 .265.224.48.5.48h27c.275 0 .5-.215.5-.48V2.404a.491.491 0 0 0-.5-.48h-27z"/><path d="M24 11.538c-2.206 0-4-1.725-4-3.846 0-2.12 1.794-3.846 4-3.846s4 1.725 4 3.846-1.794 3.846-4 3.846zm0-5.769c-1.103 0-2 .863-2 1.923s.897 1.923 2 1.923 2-.862 2-1.923c0-1.06-.897-1.923-2-1.923zM1 19.756c-.278 0-.555-.11-.753-.33a.935.935 0 0 1 .094-1.356l9.624-8.097a3.076 3.076 0 0 1 3.896-.045l6.87 5.505c.424.34.481.946.128 1.355a1.03 1.03 0 0 1-1.409.123l-6.87-5.506a1.026 1.026 0 0 0-1.298.015l-9.624 8.097c-.189.16-.424.239-.658.239z"/><path d="M30.999 19.756a1.02 1.02 0 0 1-.624-.21l-5.569-4.285a1.023 1.023 0 0 0-1.249 0l-5.568 4.284a1.028 1.028 0 0 1-1.406-.15.937.937 0 0 1 .156-1.352l5.569-4.284a3.077 3.077 0 0 1 3.748 0l5.569 4.284a.937.937 0 0 1 .156 1.352c-.198.237-.488.36-.782.36z"/></g></svg>