<svg width="30" height="30" viewBox="0 0 30 30" xmlns="http://www.w3.org/2000/svg"><title>C015040B-9D31-45C2-976A-BDD9986FAFFD</title><g fill="#6B6B6B" fill-rule="evenodd"><path d="M15 30C6.73 30 0 23.27 0 15S6.73 0 15 0s15 6.73 15 15-6.73 15-15 15zm0-28.125C7.763 1.875 1.875 7.763 1.875 15c0 7.238 5.888 13.125 13.125 13.125 7.238 0 13.125-5.887 13.125-13.125 0-7.237-5.887-13.125-13.125-13.125z"/><ellipse cx="15.042" cy="20.916" rx="1.109" ry="1.182"/><path d="M15.043 18.551c-.612 0-1.11-.528-1.11-1.182 0-1.575 1.307-2.772 2.583-3.736.398-.3.836-1.295.59-2.11-.241-.806-1.202-1.286-1.992-1.286-.866 0-1.94.43-2.358 1.63-.214.613-.855.923-1.427.697-.575-.227-.868-.908-.653-1.52.67-1.927 2.412-3.173 4.437-3.173h.002c1.603 0 3.528 1.006 4.105 2.927.56 1.857-.302 3.918-1.42 4.762-1.485 1.122-1.646 1.636-1.646 1.806-.003.657-.498 1.185-1.11 1.185z"/></g></svg>